<svg version="1.1" viewBox="0.0 0.0 288.0 288.0" fill="none" stroke="none" stroke-linecap="square" stroke-miterlimit="10" xmlns:xlink="http://www.w3.org/1999/xlink" xmlns="http://www.w3.org/2000/svg"><clipPath id="p.0"><path d="m0 0l288.0 0l0 288.0l-288.0 0l0 -288.0z" clip-rule="nonzero"/></clipPath><g clip-path="url(#p.0)"><path fill="#000000" fill-opacity="0.0" d="m0 0l288.0 0l0 288.0l-288.0 0z" fill-rule="evenodd"/><path fill="#3d00bb" d="m1.3700787 144.0l61.80315 -123.60624l161.65353 0l61.803146 123.60624l-61.803146 123.60623l-161.65353 0z" fill-rule="evenodd"/><path stroke="#3d00bb" stroke-width="1.0" stroke-linejoin="round" stroke-linecap="butt" d="m1.3700787 144.0l61.80315 -123.60624l161.65353 0l61.803146 123.60624l-61.803146 123.60623l-161.65353 0z" fill-rule="evenodd"/><path fill="#d2d2d2" d="m72.52293 174.02687q1.890625 8.984375 6.296875 13.40625q4.421875 4.421875 12.96875 4.421875q4.453125 0 8.0 -1.5q3.546875 -1.515625 5.6875 -4.875q2.15625 -3.375 2.15625 -8.421875q0 -4.6875 -1.734375 -8.125q-1.734375 -3.4375 -5.59375 -6.53125q-3.84375 -3.09375 -10.71875 -6.5625q-5.890625 -2.953125 -10.65625 -6.125q-4.75 -3.171875 -8.109375 -6.984375q-3.359375 -3.8125 -5.21875 -8.34375q-1.84375 -4.53125 -1.84375 -10.203125q0 -9.28125 4.609375 -15.765625q4.609375 -6.5 13.328125 -9.859375q8.734375 -3.359375 20.203125 -3.359375q6.71875 0 12.828125 0.71875q6.125 0.703125 13.984367 2.515625l0 21.90625l-10.343742 0q-1.4375 -5.96875 -3.671875 -9.46875q-2.21875 -3.515625 -5.546875 -5.171875q-3.328125 -1.671875 -8.375 -1.671875q-4.3125 0 -7.71875 1.515625q-3.390625 1.5 -5.359375 4.484375q-1.953125 2.984375 -1.953125 7.21875q0 4.375 1.6875 7.59375q1.703125 3.203125 5.703125 6.265625q4.015625 3.046875 11.640625 6.984375q9.28125 4.828125 14.609375 9.484375q5.328125 4.640625 7.859375 10.109375q2.5312424 5.46875 2.5312424 12.71875q0 9.296875 -4.3124924 16.140625q-4.296875 6.828125 -12.53125 10.484375q-8.234375 3.65625 -19.03125 3.65625q-7.703125 0 -16.046875 -0.875q-8.34375 -0.859375 -15.671875 -2.515625l0 -23.265625l10.34375 0zm89.41653 25.453125l0 -4.984375q3.171875 -0.53125 5.015625 -1.390625q1.859375 -0.875 2.765625 -2.453125q0.90625 -1.59375 1.125 -4.046875q0.234375 -2.453125 0.234375 -6.078125l0 -75.296875l-6.125 0q-4.53125 0 -6.953125 1.0625q-2.40625 1.0625 -4.1875 3.328125q-1.765625 2.265625 -3.0625 6.078125q-1.28125 3.8125 -2.109375 7.203125l-10.34375 0l0 -26.5l88.875015 0l0 26.5l-10.34375 0q-1.4375 -5.125 -2.265625 -7.546875q-0.828125 -2.421875 -1.84375 -4.109375q-1.015625 -1.703125 -2.15625 -2.828125q-1.125 -1.140625 -2.421875 -1.8125q-1.28125 -0.6875 -3.203125 -1.03125q-1.921875 -0.34375 -5.015625 -0.34375l-5.4375 0l0 75.296875q0 4.0 0.21875 6.078125q0.234375 2.078125 0.828125 3.359375q0.609375 1.28125 1.46875 2.078125q0.875 0.796875 2.421875 1.4375q1.546875 0.640625 4.203125 1.015625l0 4.984375l-41.687515 0z" fill-rule="nonzero"/></g></svg>